<?xml version="1.0" encoding="utf-8"?>
<!-- Generator: Adobe Illustrator 24.0.1, SVG Export Plug-In . SVG Version: 6.00 Build 0)  -->
<svg version="1.1" id="Layer_1" xmlns="http://www.w3.org/2000/svg" xmlns:xlink="http://www.w3.org/1999/xlink" x="0px" y="0px"
	 width="1262px" height="517px" viewBox="0 0 1262 517" style="enable-background:new 0 0 1262 517;" xml:space="preserve">
<style type="text/css">
	.st0{fill:#1E919F;}
	.st1{fill:#15A051;}
	.st2{fill:#6F7274;}
	.st3{fill:#185B35;}
	.st4{fill:#343536;}
</style>
<g>
	<path class="st0" d="M82.52,211.993c0.1403,23.9433,7.2345,45.5591,22.1323,64.3618
		c16.6062,20.9587,38.2522,33.7317,64.6954,37.7192c34.3405,5.1784,64.164-4.4613,89.1938-28.6055
		c1.8256-1.761,3.1236-1.9505,4.9904-0.1129c4.0322,3.9691,8.1761,7.8297,12.3826,11.6142c2.0217,1.819,2.0904,3.0889,0.1285,5.2054
		c-12.4778,13.4615-27.5527,22.9549-44.5313,29.5758c-55.7417,21.7368-120.3831,0.6126-152.7368-49.7578
		c-15.8719-24.7105-22.6686-51.8251-20.2803-80.8769c2.3573-28.6737,13.3887-54.0164,33.0973-75.2255
		c22.8097-24.5463,50.8914-38.4636,84.4219-41.0283c30.7258-2.3502,58.6646,5.3972,83.8269,23.2106
		c8.4041,5.9496,8.4496,5.8936,2.0321,13.6939c-2.2216,2.7002-4.6228,5.2692-6.6549,8.1039
		c-1.8863,2.6312-3.3713,2.7193-6.0177,0.7356c-11.5513-8.6584-24.0681-15.6253-38.2758-18.7676
		c-37.1167-8.209-69.7871,0.0392-97.4846,26.6816C93.6592,157.5477,82.3656,185.2563,82.52,211.993z"/>
	<path class="st1" d="M15.0354,261.7807c-3.6192-8.8442-4.8548-18.2939-6.0096-27.5994
		C5.0961,202.5148,9.3682,171.83,21.9814,142.464c7.5218-17.5123,17.3496-33.6604,30.1012-47.919
		c25.4257-28.4306,56.4385-47.611,93.8059-55.9181c55.0208-12.2316,104.8433-0.6076,149.6338,33.3046
		c4.9532,3.7502,4.8484,3.8602,0.7402,8.7198c-4.6187,5.4636-9.3911,10.8116-13.7364,16.4858
		c-2.0994,2.7415-3.5156,3.1042-6.2923,0.9015c-12.0575-9.5653-25.2362-17.2813-39.7123-22.578
		c-10.7434-3.9309-21.7311-7.0953-33.1709-8.286c-27.8789-2.9019-54.5983,1.477-80.1503,12.9733
		C99.2577,90.92,80.6534,108.0566,66.0928,129.5163c-24.5861,36.2355-31.4355,75.8979-21.4216,118.5023
		c0.1484,0.6313,0.1023,1.3082,0.1469,1.9639c-1.0671-0.1067-2.6634,0.3418-2.4291-1.4921
		c0.1644-1.2876,0.5249-2.3602-1.2627-2.4252c-1.7359-0.063-2.8462,0.7804-3.0482,2.5545
		c-0.1117,0.9812-0.1303,1.9843-0.0756,2.9711c0.1634,2.9492-1.087,4.1135-3.8779,2.9094
		c-2.0383-0.8793-4.0359-0.1956-4.9643,1.1251c-3.1569,4.4908-8.2121,3.9991-12.1303,3.6711
		C13.3248,258.9863,15.8507,261.2207,15.0354,261.7807z M19.5164,276.0314c13.4312,34.8305,35.6842,62.7663,66.4519,83.8123
		c30.4297,20.8147,64.3244,30.8746,101.0805,30.8207c49.7848-0.0729,91.1773-20.3287,126.8731-53.8356
		c1.397-1.3113,1.626-2.1189,0.0786-3.5575c-6.8197-6.3402-13.5341-12.7941-20.2552-19.2396
		c-1.3502-1.2949-2.408-1.4856-3.6697,0.1576c-0.7943,1.0343-1.9479,1.7901-2.9262,2.6862
		c-41.5519,38.0593-89.4875,49.9976-143.8182,34.6623c-25.8885-7.3073-47.8196-21.6151-65.8812-41.2821
		c-15.0111-16.3454-25.3759-35.6719-31.655-57.0648c-1.1958,0.1824-1.7902,2.1398-3.3518,1.1528
		c-0.1979-0.1251-0.2948-0.5974-0.2541-0.8825c0.274-1.9194,1.9335-1.2789,3.0665-1.6161
		c-0.1459-0.6208-0.2917-1.2417-0.4376-1.8625c-1.0671-0.1067-2.6634,0.3418-2.4291-1.4921
		c0.1644-1.2876,0.5249-2.3602-1.2627-2.4252c-1.7359-0.063-2.8462,0.7804-3.0482,2.5545
		c-0.1117,0.9812-0.1303,1.9843-0.0756,2.9711c0.1634,2.9492-1.087,4.1135-3.8779,2.9094
		c-2.0383-0.8793-4.0359-0.1956-4.9643,1.1251c-3.1569,4.4908-8.2121,3.9991-12.1303,3.6711
		c-3.7051-0.3101-1.1792,1.9243-1.9945,2.4843C16.5149,266.5364,17.7284,271.3947,19.5164,276.0314z"/>
	<path class="st0" d="M465.5713,90.5823c-4.363,3.6782-7.7288,7.08-11.6271,9.6845c-8.0907,5.4055-14.6732,12.5512-22.2463,18.5554
		c-12.6418,10.0227-24.8564,20.5838-37.2686,30.8968c-19.2607,16.0033-38.5315,31.9945-57.807,47.98
		c-23.5085,19.4961-47.0327,38.9732-70.537,58.4743c-10.7382,8.9093-21.4792,17.816-32.1375,26.8203
		c-2.1416,1.8092-3.3084,1.9626-4.8938-0.7177c-20.0682-33.9301-40.238-67.8001-60.3633-101.6965
		c-0.1381-0.2326-0.0171-0.6191-0.0171-1.3218c2.3496,0.0942,3.8213,1.7893,5.4013,2.9449
		c18.3975,13.4553,36.7462,26.9774,55.0833,40.515c5.6302,4.1565,5.6832,4.2233,11.8564,0.526
		c24.265-14.5334,48.5232-29.0781,72.7836-43.6192c41.2278-24.7108,82.4584-49.4167,123.6799-74.1381
		c6.9259-4.1536,13.7695-8.4463,20.743-12.5172C460.0859,91.8803,461.8689,90.1737,465.5713,90.5823z"/>
	<path class="st2" d="M572.0134,365.9475c0-15.3717-0.0414-29.9562,0.0159-44.5403c0.0331-8.4134-1.2038-7.321,7.4357-7.398
		c5.8322-0.052,11.6693,0.1164,17.4962-0.0673c2.9566-0.0932,4.0906,0.7266,4.079,3.8958
		c-0.1041,28.6633-0.0968,57.3273-0.0043,85.9907c0.0098,3.0098-0.852,4.1232-3.9561,4.0413
		c-6.9943-0.1847-14.0031-0.2231-20.9935,0.0263c-3.1361,0.1119-4.8062-1.135-6.3275-3.6792
		c-9.1065-15.2301-18.3427-30.3828-28.3409-45.6101c0,5.3565-0.0086,10.7131,0.0019,16.0695
		c0.0189,9.6649-0.0766,19.3327,0.143,28.9932c0.0769,3.3859-1.1507,4.301-4.3516,4.2102
		c-6.8271-0.1937-13.668-0.2043-20.4942,0.0052c-3.1716,0.0974-4.4421-0.7337-4.4301-4.1322
		c0.102-28.6633,0.1013-57.3273-0.0057-85.9906c-0.0121-3.2364,1.2332-3.8928,4.1417-3.8196
		c6.9949,0.176,14.0027,0.2224,20.9938-0.0168c3.1323-0.1071,4.7503,1.1504,6.2473,3.7197
		C552.9257,333.5406,563.1741,348.8528,572.0134,365.9475z"/>
	<path class="st2" d="M1210.6594,365.3044c-0.771-15.4957-0.0735-30.9516-0.4738-46.3931c-0.1044-4.025,1.1587-5.1651,5.062-4.9955
		c6.8184,0.2963,13.66,0.179,20.4885,0.0548c2.5426-0.0463,3.5115,0.7054,3.5056,3.3834
		c-0.0634,28.9901-0.0441,57.9803,0.025,86.9704c0.006,2.5109-0.7106,3.5867-3.3936,3.54
		c-7.4951-0.1306-14.9994-0.2061-22.4889,0.0381c-3.0205,0.0985-4.0093-1.7374-5.1896-3.7455
		c-9.0928-15.4709-19.146-30.369-28.1312-47.2774c-0.1251,2.6014-0.271,4.2518-0.2733,5.9023
		c-0.0188,13.4953-0.1052,26.9917,0.0551,40.4851c0.0402,3.3881-0.7993,4.7687-4.4451,4.6277
		c-6.8208-0.2638-13.6636-0.2188-20.4883-0.009c-3.1813,0.0978-3.9001-1.1253-3.8907-4.0743
		c0.09-28.4901,0.1154-56.9808-0.0177-85.4706c-0.0168-3.6121,1.2229-4.5238,4.6067-4.4088
		c6.6569,0.2263,13.3346,0.2619,19.9877-0.0122c3.3353-0.1374,5.0763,1.152,6.6559,3.9312
		c8.9606,15.7647,19.2197,30.7684,27.5552,46.9047C1209.9333,364.9968,1210.3278,365.0984,1210.6594,365.3044z"/>
	<path class="st2" d="M436.3415,356.9919c0,14.9221-0.0029,29.8443,0.0015,44.7664c0.0018,6.0565,0.009,6.0596-6.2783,6.0591
		c-6.1613-0.0005-12.3259-0.128-18.4824,0.0404c-2.8359,0.0776-3.7374-0.8744-3.7291-3.7116
		c0.0837-28.808,0.0829-57.6163,0.0082-86.4243c-0.0071-2.7595,0.7643-3.8411,3.6605-3.7746
		c7.1567,0.1644,14.3253,0.2177,21.4774-0.0277c3.0079-0.1032,4.4183,1.2029,5.824,3.5728
		c9.1437,15.4159,18.4201,30.753,27.7386,46.2581c1.436-1.0745,0.7607-2.6826,0.7666-3.9997
		c0.0609-13.6545,0.1395-27.3105-0.0215-40.9633c-0.0421-3.5692,0.7949-5.0734,4.7132-4.8828
		c6.6451,0.3233,13.3198,0.1991,19.9771,0.0438c3.0828-0.0719,4.3821,0.6617,4.3643,4.151
		c-0.145,28.4745-0.1554,56.9504-0.0079,85.4249c0.0194,3.7521-1.4376,4.4411-4.6971,4.3599
		c-6.9893-0.174-13.9868-0.0997-20.9793-0.0078c-2.1514,0.0283-3.7056-0.3464-4.947-2.4232
		c-8.4524-14.1414-17.0607-28.1896-25.5471-42.3108c-1.1836-1.9695-1.9746-4.1749-2.9474-6.2711
		C436.9376,356.9114,436.6395,356.9517,436.3415,356.9919z"/>
	<path class="st2" d="M1041.1237,360.8601c0.1696-17.8611,5.8645-32.8665,21.7667-42.7928
		c14.3177-8.9373,44.4563-9.4948,59.9111,3.8965c7.7369,6.7039,12.5328,15.0895,14.5991,24.9474
		c2.5726,12.2736,2.2151,24.504-2.4989,36.2901c-4.7786,11.9477-13.3656,20.1703-25.5328,24.3494
		c-11.9709,4.1116-24.2354,4.2931-36.3157,0.7697c-19.1993-5.5999-31.0177-21.807-31.9213-42.966
		C1041.0681,363.8589,1041.1237,362.3583,1041.1237,360.8601z M1108.0168,360.7779c0.1677-5.1928-0.4966-10.5784-2.5238-15.7849
		c-2.6655-6.846-8.1699-9.4418-14.9127-9.6038c-6.6812-0.1605-12.7386,1.8455-15.5321,8.5875
		c-4.7234,11.4007-4.6665,23.0259,0.1014,34.3956c2.7532,6.5652,8.8827,8.3961,15.2386,8.2997
		c6.3921-0.097,12.0275-2.3612,14.8278-8.985C1107.4679,372.3606,1108.1284,366.8157,1108.0168,360.7779z"/>
	<path class="st2" d="M662.4192,311.5283c9.4537,0.0309,18.5406,1.6509,26.7988,6.5414
		c12.5097,7.4083,19.0659,18.7498,20.9426,32.8498c2.0787,15.6187,0.5558,30.5494-9.7328,43.4851
		c-6.6442,8.3535-15.5139,12.9992-25.7144,15.0512c-9.8961,1.9908-19.8753,1.7141-29.6174-1.1423
		c-17.2532-5.0587-29.1331-19.6149-31.2148-37.619c-1.0823-9.3591-0.8405-18.5662,1.8631-27.6398
		c5.1965-17.4398,20.0883-29.5539,38.2123-31.0446C656.7715,311.7786,659.598,311.6854,662.4192,311.5283z M644.0545,360.8577
		c-0.2872,4.3932,0.175,8.8509,1.3433,13.2099c2.1372,7.9735,8.8076,12.9312,16.9353,12.7039
		c8.8406-0.2472,14.5532-4.703,16.4999-13.1141c1.9401-8.3822,1.8541-16.8301,0.0574-25.2167
		c-1.7307-8.0782-7.1278-12.4836-15.4928-12.9808c-8.7137-0.5179-14.7303,3.2151-17.4675,11.0288
		C644.321,351.0824,643.808,355.8706,644.0545,360.8577z"/>
	<path class="st2" d="M178.7936,130.3618c0.0001-1.1659-0.011-2.332,0.0018-3.4978c0.0955-8.7063-1.0836-9.6835,10.4828-9.3021
		c8.2273,0.2713,9.1193,0.6805,8.3647,9.0502c-0.9929,11.0117,2.7576,17.196,13.765,19.2527
		c4.0229,0.7517,7.762,2.9255,11.7101,4.2053c2.9672,0.9619,3.6457,2.2517,1.8479,4.9978
		c-2.458,3.7547-4.7441,7.6352-6.8792,11.5833c-1.3463,2.4896-2.6525,2.7164-5.118,1.3342
		c-8.7103-4.8829-18.0099-7.5495-28.1408-7.3787c-22.5453,0.38-43.4303,17.2083-48.3162,39.195
		c-5.4677,24.6052,9.3606,53.5993,32.6242,63.4575c3.1584,1.3384,4.4077,2.4881,1.9139,5.5635
		c-1.3504,1.6653-2.2702,3.6776-3.4022,5.5223c-4.2849,6.9825-4.289,6.9835-11.8407,3.2458
		c-3.4285-1.6969-6.91-3.2992-10.2559-5.1466c-2.3837-1.3162-3.9355-0.7383-5.5298,1.2997
		c-2.9726,3.7997-6.1963,7.4022-9.1992,11.1792c-2.151,2.7055-4.1876,2.9614-6.5266,0.2804
		c-3.0629-3.5107-6.1245-7.0276-9.3257-10.4102c-1.6502-1.7436-1.395-2.9348,0.2064-4.5569
		c4.0904-4.1436,7.9292-8.5363,12.0383-12.6602c1.6714-1.6774,1.9747-3.0615,0.8976-5.2161
		c-4.2423-8.4864-8.0602-17.1563-10.454-26.3852c-0.5284-2.0372-1.8982-2.7877-4.0379-2.8909
		c-4.9834-0.2404-9.9533-0.7577-14.9296-1.1498c-5.4488-0.4293-6.3706-1.352-6.4528-6.6512
		c-0.0413-2.664,0.2451-5.3578-0.059-7.9869c-0.4278-3.6987,1.3627-4.4429,4.558-4.5053
		c5.6514-0.1105,11.2943-0.7197,16.9448-0.7891c2.4676-0.0303,3.4863-1.0045,4.2781-3.1609
		c3.211-8.7441,6.5035-17.4604,9.9365-26.1194c0.9292-2.3437,0.6044-3.953-1.0854-5.794
		c-3.2611-3.5531-6.1891-7.4105-9.4133-10.9996c-1.6911-1.8825-1.6962-3.2199,0.1895-4.9919
		c3.2725-3.0751,6.558-6.1943,9.3899-9.661c2.0847-2.5521,3.3228-1.6564,5.0969,0.0811c3.5651,3.4915,7.3425,6.7689,10.851,10.3141
		c1.7349,1.753,3.1612,2.2862,5.6472,1.271c8.6245-3.5221,17.3253-6.8782,26.1115-9.9728c3.2083-1.13,4.6179-2.6882,4.1626-6.1173
		C178.5634,134.723,178.7935,132.5271,178.7936,130.3618z"/>
	<path class="st2" d="M856.5558,314.0031c3.4954,0.004,7.0295,0.3294,10.476-0.0811c4.0013-0.4766,5.4604,1.3958,6.6425,4.8371
		c7.7178,22.4712,15.6123,44.8819,23.4588,67.3089c2.0852,5.9602,4.1051,11.9463,6.3529,17.8451
		c1.0474,2.7486,0.754,3.9962-2.5171,3.9496c-7.8214-0.1112-15.646-0.1049-23.4678-0.0162
		c-2.2567,0.0256-3.1046-0.9472-3.7932-3.0061c-3.2056-9.5857-3.2794-9.5636-13.3839-9.5675
		c-4.8269-0.0019-9.6586,0.1397-14.4791-0.0335c-3.1883-0.1146-4.6819,1.1594-5.5602,4.2325
		c-2.3961,8.3829-2.5252,8.3452-11.0721,8.3478c-5.8256,0.0018-11.6581-0.1625-17.4742,0.0743
		c-3.3672,0.1371-3.4995-0.9802-2.5224-3.7363c9.2721-26.1546,18.4076-52.3578,27.6961-78.5065
		c1.324-3.7271,1.4461-8.6293,4.4796-10.8304c3.2362-2.3481,8.0538-0.528,12.1689-0.8115
		C854.5544,313.9408,855.5572,313.9991,856.5558,314.0031z M856.9178,345.9583c-0.3725-0.0065-0.7451-0.013-1.1176-0.0194
		c-1.9006,6.4441-3.8827,12.8655-5.6834,19.3373c-2.8633,10.2906-2.8121,10.2803,7.8844,10.3376
		c8.3512,0.0447,7.729,0.5566,5.488-7.5144C861.43,360.6826,859.1183,353.3359,856.9178,345.9583z"/>
	<path class="st2" d="M762.57,371.6915c1.4248-4.8695,2.89-9.7275,4.2667-14.6106c3.7021-13.1306,7.4809-26.2418,10.9555-39.4327
		c0.7581-2.8778,2.0132-3.7348,4.7816-3.688c7.1634,0.1214,14.3334,0.149,21.4947-0.0302c3.614-0.0905,4.6245,0.6478,3.3085,4.4898
		c-9.0032,26.2855-17.7052,52.674-26.6671,78.9738c-3.574,10.4886-3.7619,10.4274-14.9229,10.4254
		c-5.1658-0.0009-10.3359-0.1432-15.4957,0.0294c-2.6287,0.088-3.7607-0.8876-4.5864-3.3721
		c-7.0809-21.3055-14.315-42.5602-21.4898-63.8346c-2.4984-7.4083-4.7653-14.9021-7.515-22.2151
		c-1.4704-3.9106-0.1373-4.5647,3.4031-4.4887c7.4955,0.1609,15.0037,0.2416,22.4924-0.0328
		c3.2442-0.1189,4.3623,1.2472,5.0743,4.0438c4.5507,17.8723,9.2006,35.7195,13.8179,53.5748
		C761.8485,371.5796,762.2092,371.6355,762.57,371.6915z"/>
	<path class="st2" d="M946.751,313.9969c12.6532-0.0036,25.3077,0.0916,37.9589-0.0695c3.2267-0.0411,4.434,0.8148,4.2843,4.1942
		c-0.2572,5.8155-0.1721,11.6533-0.0231,17.4764c0.0676,2.6394-0.8909,3.4789-3.4778,3.4228
		c-6.49-0.1408-12.9911,0.1142-19.4758-0.1188c-3.3662-0.1209-4.162,1.1198-4.1414,4.3069
		c0.1281,19.8114-0.0542,39.6254,0.1567,59.4354c0.0441,4.1319-1.0811,5.4741-5.2468,5.2838
		c-7.1445-0.3263-14.3158-0.1953-21.4724-0.0664c-3.0168,0.0543-3.8735-0.8683-3.8514-4.0471
		c0.1409-20.3059-0.0549-40.614,0.0125-60.9208c0.0101-3.0312-0.8552-4.0919-3.9507-3.9814
		c-5.9861,0.2137-11.9911-0.1012-17.9763,0.1235c-3.407,0.1279-5.2233-0.3993-4.9795-4.4908
		c0.306-5.1342,0.1006-10.3225-0.2416-15.4637c-0.2556-3.8412,0.8594-5.2605,4.9662-5.1749
		C921.774,314.1663,934.2643,314.0005,946.751,313.9969z"/>
	<path class="st2" d="M191.1018,430.6819c-17.8193,0-35.6386-0.0274-53.4578,0.0231c-3.5812,0.0101-6.9378-0.5678-10.0233-2.4653
		c-7.1035-4.3687-7.1116-14.1895-0.0152-18.5797c4.2873-2.6524,9.1194-3.1678,13.9377-3.1825
		c31.1418-0.0948,62.2841-0.0832,93.4261-0.039c3.9836,0.0056,7.9812,0.2566,11.9469,0.6501
		c7.3116,0.7256,12.0237,6.4693,11.4977,13.7631c-0.4269,5.9196-5.0989,9.7473-12.3556,9.7758
		c-18.3186,0.0721-36.6377,0.0239-54.9566,0.0239C191.1018,430.6616,191.1018,430.6718,191.1018,430.6819z"/>
	<path class="st2" d="M1028.7202,361.0446c-0.0056,13.8161,0.0011,27.6323-0.009,41.4484c-0.004,5.3152-0.0216,5.3209-5.525,5.326
		c-6.6583,0.0062-13.3168,0.0065-19.9751,0c-5.7913-0.0056-5.8225-0.0113-5.8259-5.6461
		c-0.0146-24.9689-0.0094-49.9378-0.0125-74.9068c-0.0005-3.1627,0.1105-6.3315-0.0499-9.4863
		c-0.1388-2.7322,0.7589-3.891,3.6691-3.8375c7.9874,0.1468,15.9828,0.1952,23.9675-0.0106
		c3.2903-0.0849,3.8352,1.3206,3.8143,4.1667C1028.6691,332.4131,1028.7258,346.729,1028.7202,361.0446z"/>
	<path class="st2" d="M359.9913,361.0037c-0.0036-13.992,0.1111-27.9856-0.0804-41.975c-0.0509-3.718,0.6361-5.3459,4.8469-5.1329
		c7.3104,0.37,14.6555,0.2099,21.981,0.048c3.0733-0.0679,4.3755,0.6051,4.3577,4.1065
		c-0.1463,28.6496-0.1359,57.3004-0.0216,85.9502c0.0129,3.2318-1.1614,3.9175-4.0879,3.8565
		c-7.6588-0.1595-15.3278-0.195-22.9836,0.0302c-3.4604,0.1018-4.1065-1.2833-4.0737-4.4084
		C360.0786,389.3218,359.9949,375.1623,359.9913,361.0037z"/>
	<path class="st2" d="M190.7086,436.7993c18.8101-0.001,37.6202-0.0411,56.4301,0.0228c5.8797,0.02,10.4578,3.4928,11.5607,8.4206
		c1.068,4.7715-1.6428,10.5365-6.0333,12.5986c-3.2526,1.5275-6.8164,1.5833-10.2857,1.5667
		c-35.6168-0.1696-71.2333-0.3979-106.8494-0.6784c-9.9215-0.0781-14.5775-5.4284-12.399-13.9491
		c1.3839-5.4128,4.9678-7.9489,11.646-7.9648C153.4215,436.7715,172.0651,436.8003,190.7086,436.7993z"/>
	<path class="st2" d="M190.4419,465.019c9.308,0.0049,18.6171-0.0786,27.9237,0.0356c5.7927,0.0711,10.7885,4.9642,11.2053,10.6395
		c0.3628,4.9395-4.5604,10.8604-10.0762,11.2078c-18.9,1.1902-37.8291,2.2605-56.7372,0.2724
		c-9.2067-0.968-13.7328-11.0442-8.3733-18.1039c2.1671-2.8544,5.0423-4.1049,8.6323-4.0786
		C172.158,465.0589,181.3001,465.0141,190.4419,465.019z"/>
	<path class="st3" d="M694.6188,270.9312c0-8.8252-0.0547-17.3906,0.0472-25.9541c0.0198-1.6647-1.1176-4.2855,1.0903-4.8152
		c2.6603-0.6382,5.6174-0.2982,8.4069-0.0072c1.0716,0.1118,0.8367,1.6448,0.8378,2.6106
		c0.0168,14.6509-0.0263,29.302,0.0642,43.9524c0.015,2.4262-0.9033,2.9486-3.1823,3.18
		c-5.3241,0.5406-8.8427-0.9031-11.5173-6.0782c-4.4847-8.6773-9.8802-16.884-14.8868-25.2794
		c-2.1033,0.8867-1.3535,2.4264-1.3661,3.5677c-0.0862,7.8241-0.2686,15.6569,0.0165,23.4709
		c0.1384,3.7923-1.4276,4.6334-4.6785,4.269c-2.7015-0.3028-6.1518,1.2692-6.0685-3.9461
		c0.2259-14.1479,0.1478-28.3022,0.0319-42.4527c-0.0238-2.8983,1.0623-3.4646,3.7682-3.6901
		c5.3535-0.446,8.828,0.9118,11.3755,6.2289c3.5066,7.319,8.111,14.1168,12.3381,21.0815
		C691.6996,268.3936,692.0604,270.2138,694.6188,270.9312z"/>
	<path class="st3" d="M543.6472,291.27c-10.692-0.024-17.5234-3.9626-20.0511-11.4703c-0.6305-1.8728-2.1642-4.1696,0.2795-5.703
		c2.0363-1.2778,8.4892,0.2051,9.4354,1.7622c3.3897,5.5783,8.3513,7.499,14.7675,5.7814c2.4475-0.6552,4.2835-1.9537,4.7081-4.5566
		c0.4202-2.5759-1.3441-4.0398-3.2811-5.0884c-3.9849-2.1572-8.3912-3.0466-12.7802-4.0313
		c-10.8288-2.4294-14.7693-8.0562-13.0515-17.9966c0.8593-4.9727,3.8592-8.1459,8.2829-9.7878
		c6.7446-2.5033,13.7062-2.6882,20.4766-0.0338c5.0093,1.9639,7.8347,5.8748,8.8792,11.1842
		c0.4902,2.4916-0.2922,3.2354-2.7584,3.2652c-3.6819,0.0445-6.7507,0.3-8.8142-4.1634
		c-1.9076-4.1261-10.9787-4.5611-14.3796-1.4547c-2.6586,2.4283-2.1343,5.8576,1.2354,7.7588
		c3.0885,1.7425,6.6344,2.0594,9.9584,3.0688c2.2239,0.6754,4.5352,1.0826,6.7259,1.8442
		c7.1099,2.4719,9.9882,6.3419,9.9774,13.1679c-0.0116,7.2957-3.6414,12.6024-10.2242,14.929
		C549.8554,290.8691,546.5381,291.1128,543.6472,291.27z"/>
	<path class="st3" d="M495.3879,240.6141c-5.9356,5.6619-11.0904,10.8555-16.5638,15.6883c-2.92,2.5782-3.3066,4.4462-0.7684,7.7038
		c6.3058,8.0929,12.1699,16.5299,18.8986,25.7726c-4.4931,0-8.0458-0.0045-11.5984,0.0017
		c-2.0751,0.0036-2.6789-1.7761-3.6126-3.0647c-3.6097-4.9815-7.08-10.0652-10.7548-14.9972
		c-0.9927-1.3324-1.6261-4.2154-3.6642-3.2806c-2.2375,1.0263-4.5603,2.8931-4.5917,6.0052
		c-0.0403,3.9935-0.1323,7.9911,0.0001,11.9802c0.0867,2.6109-0.9474,3.3982-3.5069,3.4697
		c-7.0906,0.1981-7.1052,0.3116-7.1116-6.8361c-0.0117-12.9801,0.1325-25.9624-0.0833-38.939
		c-0.06-3.6094,1.076-4.8102,4.5153-4.2739c2.7356,0.4265,6.7172-1.5304,6.241,4.1467c-0.3853,4.5941-0.0781,9.2463-0.0781,13.7571
		c2.1204,0.783,2.6963-0.774,3.5336-1.6291c3.0242-3.0888,6.3884-5.9635,8.8427-9.4665
		C479.8842,239.8027,486.2843,238.6367,495.3879,240.6141z"/>
	<path class="st3" d="M657.1558,289.3051c-2.9763,0.9841-5.8151,0.3403-8.6003,0.5085c-2.8912,0.1746-2.8313-2.2828-3.4611-4.061
		c-2.3356-6.5955-0.5052-6.0567-8.5332-6.0666c-1.1645-0.0015-2.329,0.0007-3.4935,0.0007c-8.1577,0-8.2769-0.0466-11.2759,7.6292
		c-1.5455,3.9559-4.7004,2.3338-7.2311,2.4202c-4.9219,0.1681-4.895,0.0125-3.2755-4.5253
		c4.5731-12.813,9.1252-25.6335,13.6693-38.4568c2.9681-8.376,1.2069-6.4715,10.0034-6.9766
		c3.6995-0.2124,5.1979,1.1908,6.3143,4.4758c3.5231,10.3662,7.3557,20.6269,11.0241,30.9442
		C653.9509,279.8512,656.117,284.3407,657.1558,289.3051z M633.9321,251.9601c-0.2791,0.0323-0.5581,0.0646-0.8372,0.0969
		c-0.8557,2.6756-1.7374,5.3432-2.5624,8.0283c-3.8377,12.4905-7.1567,11.0803,8.5708,10.576
		c0.1409-0.0045,0.277-0.1564,0.8236-0.4844C637.9512,264.1731,635.9417,258.0666,633.9321,251.9601z"/>
	<path class="st3" d="M439.6521,289.838c-3.7639,1.1695-5.9062-0.9655-6.4206-5.171c-0.5113-4.1807-2.836-5.615-6.8502-5.025
		c-1.4665,0.2155-3.0123,0.1815-4.4879-0.0063c-6.2324-0.7935-11.1443,0.1862-11.8378,7.8357
		c-0.2234,2.463-2.2623,2.4168-4.1794,2.3726c-9.4199-0.2173-7.954,0.6174-5.3264-7.0448
		c4.4727-13.0423,9.4113-25.9248,13.8907-38.9649c1.043-3.0364,2.402-4.4606,5.6229-4.0025
		c1.306,0.1858,2.6819,0.1844,3.9885,0.0011c3.2458-0.4554,4.6064,1.0815,5.6344,4.0517
		c4.6741,13.5056,9.5537,26.9409,14.4451,40.3703C446.546,290.8842,445.9421,289.7238,439.6521,289.838z M422.4846,251.7532
		c-2.6177,3.0995-3.0273,6.7731-4.145,10.0666c-3.3213,9.7866-2.7602,10.3011,7.6067,9.1254
		c2.1853-0.2478,2.4412-0.9716,1.827-2.8146C426.0052,262.824,424.3286,257.4868,422.4846,251.7532z"/>
	<path class="st3" d="M370.2477,240.0134c3.8292,0,7.6781-0.248,11.4832,0.0549c6.6176,0.5267,11.0074,4.8055,12.0784,11.3167
		c0.4628,2.8138,0.4548,5.6545,0.0777,8.4616c-0.905,6.7355-4.8431,10.9297-11.5616,11.8969
		c-3.4348,0.4944-6.9656,0.3755-10.4547,0.4272c-5.321,0.0789-5.3247,0.0396-5.3387,5.5479
		c-0.0047,1.8322,0.011,3.6644,0.0183,5.4966c0.0248,6.2022-3.2597,8.5082-9.1631,6.5781c-1.7874-0.5844-1.617-1.8962-1.6186-3.1834
		c-0.0177-14.4911,0.0509-28.9827-0.061-43.473c-0.0213-2.7544,1.0786-3.4099,3.5486-3.3126
		c3.6586,0.1441,7.3271,0.0373,10.9914,0.0373C370.2476,239.9121,370.2477,239.9628,370.2477,240.0134z M372.9638,262.7703
		c0.995,0,1.9911,0.0318,2.9847-0.0053c5.5988-0.209,7.6118-2.0468,7.6086-6.9188c-0.0033-5.0739-2.1051-6.9148-7.96-6.9557
		c-1.6581-0.0116-3.3448,0.2014-4.9689-0.0323c-3.375-0.4856-4.5009,0.981-4.1502,4.1489c0.1269,1.1466,0.0073,2.3194,0.0178,3.4801
		C366.5625,263.8459,365.972,262.642,372.9638,262.7703z"/>
	<path class="st4" d="M635.0532,463.8399c1.1469-2.6516,0.6457-4.9638,0.6682-7.162c0.0818-7.9926,0.0908-15.987,0.0071-23.9795
		c-0.0237-2.266,0.0936-3.7627,3.0695-3.7679c3.0013-0.0052,3.0671,1.5593,3.0593,3.782
		c-0.0469,13.3224,0.0122,26.6451-0.0428,39.9673c-0.0062,1.4916,0.9081,3.8015-1.4599,4.1403
		c-2.2944,0.3282-4.8065,0.9704-6.5656-1.9656c-5.6426-9.4179-11.5566-18.6729-17.335-28.0099
		c-1.3625-2.2016-2.6039-4.478-4.6907-6.5375c0,10.8588,0.0377,21.7179-0.0417,32.5761c-0.0115,1.5782,0.9816,3.83-2.081,4.1522
		c-3.0436,0.3202-3.9879-0.697-3.9453-3.8408c0.178-13.1536,0.0264-26.3115,0.1371-39.4666
		c0.0131-1.5559-1.3016-4.1563,1.3842-4.5429c2.4214-0.3485,5.154-1.0309,7.0284,2.0811
		c5.6656,9.406,11.5995,18.6504,17.4284,27.958C632.5908,460.689,633.1537,462.4374,635.0532,463.8399z M635.5308,464.1765
		c-0.1622,0.0955-0.3581,0.2109-0.554,0.3264c0.1016,0.1047,0.2288,0.3124,0.3,0.2947c0.2141-0.0531,0.4064-0.1941,0.6072-0.3008
		C635.7759,464.3987,635.6677,464.3006,635.5308,464.1765z"/>
	<path class="st4" d="M843.3141,463.4453c0.8546-3.115,0.6125-6.2413,0.3516-9.2527c-0.6198-7.1544-0.0668-14.3082-0.3296-21.4554
		c-0.0812-2.21,0.0507-3.7691,3.0651-3.8022c3.0396-0.0334,3.5326,1.2373,3.5137,3.8589
		c-0.0956,13.3175-0.0189,26.6361-0.0797,39.954c-0.0067,1.4837,0.9126,3.7739-1.5202,4.0883
		c-2.3162,0.2992-4.7912,0.9198-6.5492-2.02c-5.7187-9.5627-11.7242-18.9536-17.5895-28.4291
		c-1.2711-2.0535-2.4178-4.1841-4.3882-6.0796c0,10.8641,0.0312,21.7284-0.0366,32.592c-0.0092,1.4774,0.8721,3.6303-1.6343,4.0526
		c-2.8388,0.4784-4.4982-0.0303-4.4273-3.7852c0.2484-13.1469,0.025-26.3023,0.1297-39.4532
		c0.0123-1.5496-1.1382-4.132,1.4924-4.5241c2.4462-0.3646,5.1159-0.9611,6.9817,2.1482c5.733,9.5536,11.7297,18.95,17.7003,28.359
		C840.8063,460.9769,840.866,462.9671,843.3141,463.4453z M843.5269,464.1773c-0.1641,0.0967-0.3587,0.2113-0.5533,0.326
		c0.1011,0.1038,0.2275,0.3098,0.2985,0.2921c0.2128-0.0527,0.4037-0.1929,0.6033-0.2989
		C843.7683,464.3986,843.6614,464.3006,843.5269,464.1773z"/>
	<path class="st4" d="M392.9506,476.7319c-3.9191,0.4938-7.3961,0.9715-9.7921-2.6159c-1.2441-1.8627-2.4354-0.6718-3.6982,0.1676
		c-4.3137,2.8674-9.0461,4.0688-14.2231,3.3578c-5.5571-0.7631-9.8177-3.4041-11.5804-8.888
		c-1.825-5.6777-0.8318-11.137,3.8771-14.9535c3.3604-2.7235,3.8314-4.6262,1.8729-8.723
		c-3.8167-7.9842,1.643-16.3415,10.2769-16.9065c4.838-0.3166,8.7996,1.8791,10.6165,5.8842
		c2.0548,4.5295,0.7943,9.429-2.9821,13.1855c-1.7841,1.7747-5.731,2.085-5.3361,4.9383c0.2868,2.0724,2.9991,3.8084,4.6266,5.6973
		c0.1078,0.1252,0.1671,0.2958,0.2839,0.4093c1.7476,1.6973,3.0488,5.334,5.1877,4.7763c2.6749-0.6976,2.6008-4.5741,3.5288-7.1523
		c0.4467-1.2411,0.5089-2.6212,0.9614-3.8594c0.8124-2.2228,2.8303-1.3516,4.3251-1.3131c2.1581,0.0556,1.5246,1.8529,1.2784,3.0204
		c-0.8582,4.0716-1.8867,8.1569-4.2036,11.6506c-1.578,2.3795-1.5541,4.0321,0.6531,5.9275
		C390.2205,472.7067,391.7799,474.2409,392.9506,476.7319z M368.6562,472.738c2.631,0.1289,4.8986-0.778,7.0979-2.075
		c2.122-1.2515,2.2151-2.4705,0.5276-4.2645c-3.1907-3.392-6.2447-6.9142-9.3086-10.4232c-1.3496-1.5457-2.5145-1.7475-4.153-0.25
		c-2.9598,2.7049-4.2795,7.0247-2.9243,10.8856C361.3431,470.7341,364.5291,472.4404,368.6562,472.738z M364.2177,439.5571
		c-0.0514,3.1241,2.5482,7.9164,4.2542,7.8423c2.3188-0.1007,6.9096-5.631,7.0029-8.4359c0.1102-3.313-2.2226-6.007-5.253-6.0662
		C366.9166,432.8325,364.2802,435.7568,364.2177,439.5571z"/>
	<path class="st4" d="M693.8507,463.4127c0.0018,1.4998,0.0019,2.9997,0.0018,4.4996c-0.0003,7.8078,0.0175,7.9317-7.6558,9.0399
		c-4.9528,0.7153-10.0031,0.9461-14.92-0.2244c-10.9789-2.6138-17.5928-12.2165-17.0439-24.4461
		c0.557-12.4113,8.7764-21.7881,20.6337-23.331c4.6365-0.6033,9.3099-0.6415,13.8958,0.5744
		c1.847,0.4898,4.0572,0.3875,3.1609,3.6591c-0.8128,2.9668-2.2289,2.466-4.4067,1.8463c-4.3887-1.2488-8.8962-1.403-13.3374-0.1756
		c-10.3258,2.8537-15.4337,13.4501-12.0511,24.867c2.7483,9.276,13.1985,14.675,22.8287,11.8339
		c1.1911-0.3514,2.3391-0.7395,2.3676-2.144c0.0743-3.6624,0.6158-7.4598-0.1636-10.95c-0.6436-2.8821-3.9363-1.3174-5.9857-1.3615
		c-2.4499-0.0528-3.7899-0.4355-3.4947-3.2541c0.1671-1.5952,0.6099-2.4475,2.374-2.417c3.665,0.0634,7.3344,0.0814,10.9973-0.0326
		c2.2409-0.0697,2.8878,0.9632,2.822,3.0179C693.7773,457.4109,693.8488,460.4129,693.8507,463.4127z"/>
	<path class="st4" d="M927.0267,454.1369c3.7378,2.5662,5.1539,5.8749,6.0515,9.4989c0.7976,3.2211,1.7117,6.4176,2.3751,9.6656
		c0.2386,1.1684,2.2328,3.1003-0.3837,3.5411c-1.9955,0.3362-4.8888,1.3225-5.8481-1.9674
		c-0.9758-3.3457-1.7834-6.7404-2.67-10.1122c-1.8098-6.8834-5.4724-9.1994-12.4873-8.3756
		c-2.3014,0.2702-2.118,1.531-2.1169,3.0324c0.0035,4.8241-0.1002,9.6513,0.0443,14.471c0.0721,2.4035-0.8003,3.2038-3.1598,3.173
		c-2.3379-0.0305-3.6873-0.3949-3.6636-3.2529c0.1128-13.6396,0.0667-27.2808,0.0223-40.9213
		c-0.0067-2.0925,0.4373-3.6308,2.8622-3.7789c5.4724-0.3343,10.9673-0.9271,16.3999,0.1892
		c5.2742,1.0838,9.2026,3.9205,10.2662,9.5115c1.0485,5.5107-0.4609,10.2016-5.2114,13.5653
		C928.8524,452.8407,928.1981,453.3058,927.0267,454.1369z M911.9502,442.6324c0.0104,0,0.0209,0,0.0313,0
		c0,2.1555-0.0026,4.311,0.0012,6.4665c0.0017,1.0026-0.0331,2.075,1.4149,2.0364c3.2858-0.0875,6.6271,0.566,9.8099-0.8686
		c4.1422-1.867,6.1539-5.9193,4.9735-10.1773c-1.2584-4.5395-6.3829-6.8879-12.6573-6.3746
		c-5.843,0.4779-2.8181,4.7625-3.5552,7.4303C911.8407,441.6073,911.9502,442.1349,911.9502,442.6324z"/>
	<path class="st3" d="M593.1086,269.5788c0,5.4939-0.121,10.9916,0.0508,16.4802c0.0865,2.7617-0.7289,3.7741-3.6331,3.8246
		c-7.0237,0.122-7.0237,0.2744-7.0231-6.9096c0.0009-9.989-0.0992-19.9798,0.0746-29.9658c0.0515-2.96-0.6049-4.3841-3.8208-3.9904
		c-1.8045,0.2209-3.6578,0.0451-5.4891,0.045c-5.4515-0.0004-5.2361-0.0066-5.3771-5.4046c-0.0841-3.218,1.1436-3.894,4.0603-3.8549
		c10.6531,0.1427,21.3129,0.2329,31.9619-0.0163c3.8282-0.0896,4.218,1.5817,4.2487,4.7127c0.0314,3.2088-0.513,5.1967-4.2767,4.585
		c-0.6492-0.1055-1.3294-0.0236-1.9953-0.0236c-8.7676,0.0004-8.7676,0.0006-8.7678,8.531c-0.0001,3.9956,0,7.9912,0,11.9868
		C593.1174,269.5788,593.113,269.5788,593.1086,269.5788z"/>
	<path class="st4" d="M773.7397,452.4887c0-6.4877,0.13-12.9792-0.0591-19.4614c-0.0847-2.9026,0.5117-4.2093,3.7853-4.0802
		c6.3113,0.2488,12.6393,0.0939,18.9603,0.0666c1.9316-0.0084,3.6053-0.0983,3.6808,2.6993
		c0.0747,2.7699-1.4841,2.8744-3.4852,2.8531c-4.3243-0.0461-8.6519,0.0595-12.973-0.0696
		c-2.5374-0.0758-3.3546,0.8253-3.4414,3.4374c-0.3755,11.2921-0.4684,11.2894,10.9716,11.2736
		c1.6635-0.0023,3.3303,0.0557,4.9894-0.0319c2.2729-0.1201,2.793,1.1194,2.8044,3.0958c0.0115,1.9886-0.9424,2.6029-2.7617,2.5815
		c-3.9918-0.047-7.9921,0.1394-11.9745-0.0599c-2.8293-0.1416-4.3854,0.3494-4.0115,3.7094
		c0.4551,4.091-1.6583,9.3388,0.7953,12.0529c2.5529,2.8239,7.8743,0.6364,11.9709,0.9411
		c1.8196,0.1354,3.6595,0.0645,5.4874,0.0056c1.7874-0.0576,2.8117,0.483,2.7841,2.5222c-0.0276,2.042-0.7158,3.0286-2.9189,3.0052
		c-7.3185-0.0777-14.6401-0.122-21.957,0.0103c-2.899,0.0525-2.6667-1.7224-2.6641-3.5909
		c0.0099-6.9868,0.004-13.9735,0.004-20.9603C773.7312,452.4887,773.7354,452.4887,773.7397,452.4887z"/>
	<path class="st4" d="M948.3164,452.9462c0-6.6573,0.1177-13.3177-0.0541-19.9705c-0.0757-2.9293,0.625-4.157,3.8618-4.0195
		c6.1469,0.2612,12.3131,0.0439,18.4708,0.0886c1.8643,0.0135,4.127-0.6891,4.2078,2.6192c0.0902,3.6893-2.4581,2.8042-4.448,2.8424
		c-3.9929,0.0766-7.9911,0.142-11.9807,0.0133c-2.4729-0.0799-3.4325,0.6283-3.5481,3.3289
		c-0.4865,11.3661-0.5873,11.3619,10.8857,11.3628c1.6644,0.0001,3.3339,0.0792,4.9919-0.0241
		c2.1444-0.1336,2.9473,0.7625,2.9653,2.9066c0.0193,2.3029-1.1227,2.8005-3.1057,2.765
		c-3.9933-0.0715-7.9943,0.1064-11.9812-0.0673c-2.673-0.1164-3.9567,0.5489-3.736,3.5366
		c0.3042,4.1204-1.2509,9.3676,0.7555,12.1068c2.2,3.0037,7.7366,0.6944,11.7994,1.0543c1.8159,0.1608,3.6633,0.0916,5.4885-0.0122
		c1.9719-0.1122,2.6384,0.7453,2.5939,2.6554c-0.0406,1.7491-0.4108,2.8854-2.463,2.8752
		c-7.323-0.0365-14.6472-0.0805-21.9692,0.0139c-2.7695,0.0356-2.7765-1.6382-2.7678-3.6034
		c0.0305-6.8238,0.0118-13.6479,0.0118-20.4719C948.3022,452.9462,948.3093,452.9462,948.3164,452.9462z"/>
	<path class="st4" d="M464.0524,452.765c0-6.6609,0.0859-13.3234-0.043-19.9817c-0.0505-2.6041,0.4357-3.9286,3.4997-3.8253
		c6.4866,0.2188,12.987,0.1374,19.4791,0.0248c2.2462-0.0389,3.2871,0.4391,3.2635,2.9951
		c-0.0229,2.4846-1.2782,2.6097-3.1317,2.5851c-4.3286-0.0574-8.663,0.1035-12.9865-0.0566
		c-2.8462-0.1054-3.5551,1.0298-3.5983,3.7706c-0.1721,10.9434-0.2696,10.942,10.8151,10.9349
		c1.1656-0.0008,2.3317-0.0253,3.4969-0.0027c2.0595,0.04,4.3882-0.6978,4.313,2.9513c-0.079,3.8343-2.6992,2.5739-4.5576,2.6421
		c-3.6584,0.1342-7.3307,0.1536-10.9871-0.0084c-2.4638-0.1092-2.9854,0.8982-3.0829,3.2045
		c-0.5731,13.5491-0.6345,13.5468,12.8174,13.5254c1.4987-0.0024,2.9999,0.043,4.4955-0.0291
		c2.0621-0.0994,3.4973,0.0974,3.369,2.8815c-0.1108,2.4017-1.2608,2.6639-3.1657,2.649
		c-6.9935-0.0548-13.9891-0.1102-20.9808,0.0128c-2.5151,0.0442-3.0937-1.0492-3.0662-3.292
		c0.0856-6.9929,0.0314-13.9875,0.0314-20.9814C464.0396,452.765,464.046,452.765,464.0524,452.765z"/>
	<path class="st4" d="M518.9661,428.1604c1.5306,0.2247,3.8715,0.3841,6.1077,0.9543c1.8278,0.466,4.0103,0.8417,3.0025,3.9203
		c-0.8677,2.6507-2.0507,2.7047-4.369,1.7481c-2.5959-1.0711-5.4064-1.5392-8.3032-0.856
		c-3.1605,0.7454-5.5515,2.2541-6.1833,5.6518c-0.632,3.398,0.9233,5.9149,3.7625,7.4598
		c3.4889,1.8984,7.2446,3.3063,10.7349,5.2025c4.8041,2.61,7.2961,6.8239,6.9475,12.3007
		c-0.3585,5.6342-3.3142,9.5848-8.6351,11.7489c-2.5182,1.0242-5.1537,1.3473-7.7852,1.4753
		c-3.3369,0.1623-6.5906-0.5832-9.7913-1.567c-2.5218-0.775-3.467-1.8605-2.386-4.7232c1.1561-3.0614,2.6246-1.4307,4.1863-0.8633
		c3.4631,1.2582,6.9462,2.2306,10.7006,1.3365c3.7269-0.8875,6.4313-2.8299,6.9069-6.8417c0.4448-3.7511-1.4704-6.358-4.6738-8.0525
		c-1.6078-0.8505-3.301-1.553-4.9934-2.2275c-2.4837-0.9899-4.879-2.1425-6.9719-3.8128
		c-7.2806-5.8102-6.369-16.3309,1.8151-20.7595C511.8687,428.7233,514.984,428.229,518.9661,428.1604z"/>
	<path class="st4" d="M724.9563,453.4589c0.0532-19.0677,15.5537-28.671,33.8616-24.1916c2.2952,0.5616,2.7685,1.8492,2.0947,4.0486
		c-0.6915,2.2571-1.8066,2.1236-3.7231,1.4943c-4.5353-1.4893-9.1853-1.565-13.7354,0.0484
		c-8.7543,3.1042-13.1926,12.2707-11.222,23.017c1.6172,8.8193,8.0232,14.1079,17.2626,14.1999
		c2.6679,0.0266,5.3936,0.0455,7.8864-0.9821c1.962-0.8088,3.1454-0.7092,3.5756,1.5957c0.3218,1.7245,0.5491,2.9853-1.8755,3.6627
		C742.3616,481.0223,724.9411,474.4428,724.9563,453.4589z"/>
	<path class="st4" d="M559.4242,456.2944c-0.0024,5.4922-0.0684,10.9854,0.0266,16.476c0.0446,2.5769,0.0065,4.3802-3.5665,4.3423
		c-3.7332-0.0396-3.3755-2.1852-3.3714-4.5676c0.0197-11.1506-0.1757-22.3059,0.1039-33.4496
		c0.0978-3.9003-1.274-4.9821-4.8218-4.6302c-2.1439,0.2126-4.3245,0.0271-6.4863,0.0933c-1.8801,0.0576-3.2016-0.1978-3.1305-2.653
		c0.0611-2.1068,0.7058-2.9361,2.9004-2.9166c9.9847,0.0891,19.9712,0.1098,29.9556,0.0121
		c2.4275-0.0238,2.6611,1.2395,2.7059,3.1086c0.05,2.0854-1.0911,2.509-2.84,2.4622c-2.3284-0.0624-4.6799,0.1606-6.9846-0.0847
		c-3.3921-0.3609-4.7469,0.6997-4.5662,4.336C559.6381,444.6339,559.4266,450.4694,559.4242,456.2944z"/>
	<path class="st3" d="M502.5354,264.3355c0-6.8166,0.0949-13.6352-0.046-20.4489c-0.0574-2.7789,0.361-4.2072,3.7324-4.0929
		c7.9143,0.2684,6.7081-0.5427,6.7306,6.5883c0.041,12.9681-0.2691,25.9446,0.1224,38.9008
		c0.1561,5.1671-2.6601,4.3743-5.8581,4.6128c-3.6559,0.2727-4.9764-0.7475-4.7986-4.6159
		c0.3203-6.9681,0.0905-13.9615,0.0905-20.9443C502.5175,264.3355,502.5264,264.3355,502.5354,264.3355z"/>
	<path class="st4" d="M880.6682,456.01c-0.0057,5.6529-0.0391,11.3062,0.0106,16.9586c0.02,2.2752,0.2148,4.1933-3.1954,4.1493
		c-3.1443-0.0406-3.4277-1.5237-3.4113-4.0231c0.0754-11.4716-0.1003-22.9462,0.1019-34.4147
		c0.058-3.2916-0.8661-4.5218-4.1548-4.1956c-2.3056,0.2286-4.6546-0.0226-6.9772,0.0877c-2.1821,0.1037-3.3499-0.3385-3.258-2.9879
		c0.0853-2.457,1.2733-2.5917,3.1524-2.5825c9.8091,0.048,19.6191,0.0666,29.4278-0.0184c2.1398-0.0185,2.8624,0.6848,2.9312,2.8438
		c0.0748,2.3488-0.9406,2.9232-2.9625,2.7109c-0.4935-0.0519-0.9968-0.0151-1.4955-0.0135
		c-10.1644,0.0326-10.1643,0.0328-10.1634,10.0133C880.6742,448.3619,880.6739,452.186,880.6682,456.01z"/>
	<path class="st4" d="M432.8479,455.5061c0.0001-5.3305-0.3184-10.686,0.0991-15.9836c0.3448-4.375-1.306-5.5448-5.3035-5.0245
		c-2.129,0.2771-4.3259-0.011-6.4883,0.0658c-2.1246,0.0754-2.9668-0.8028-2.8908-2.9618c0.0685-1.9508,0.9331-2.6127,2.7675-2.6063
		c10.16,0.0356,20.3204,0.0554,30.4803,0.0052c2.0235-0.01,2.515,0.9301,2.5589,2.7469c0.0447,1.8488-0.4986,2.8441-2.4771,2.8124
		c-2.6646-0.0428-5.3479,0.1724-7.9907-0.0731c-3.2933-0.306-4.2695,0.9301-4.2182,4.1981
		c0.1778,11.3245,0.0325,22.6537,0.0971,33.9806c0.0144,2.52,0.1454,4.4275-3.4657,4.4641
		c-3.9804,0.0403-3.1419-2.4499-3.1563-4.6328C432.823,466.8335,432.8478,461.1697,432.8479,455.5061z"/>
	<path class="st4" d="M590.2465,453.4885c-0.0018,6.6662-0.065,13.3333,0.0322,19.9981c0.0344,2.3609-0.3419,3.673-3.222,3.6015
		c-2.6849-0.0667-3.3954-1.0647-3.3803-3.5756c0.0815-13.665,0.0717-27.331,0.0041-40.9962
		c-0.0122-2.4618,0.6748-3.5051,3.3774-3.5969c2.9172-0.0991,3.248,1.2374,3.2203,3.571
		C590.1953,439.4889,590.2484,446.489,590.2465,453.4885z"/>
	<path class="st1" d="M45.795,253.1907c-1.1958,0.1824-1.7902,2.1398-3.3518,1.1528c-0.1979-0.1251-0.2948-0.5974-0.2541-0.8825
		c0.274-1.9194,1.9335-1.2789,3.0665-1.6161C45.8485,252.128,46.0063,252.5854,45.795,253.1907z"/>
</g>
</svg>
